<?xml version="1.0" encoding="UTF-8"?>
<svg width="44px" height="44px" viewBox="0 0 44 44" version="1.1" xmlns="http://www.w3.org/2000/svg" xmlns:xlink="http://www.w3.org/1999/xlink">
    <title>src / icon</title>
    <defs>
        <linearGradient x1="50%" y1="100%" x2="50%" y2="-3.88180262e-15%" id="linearGradient-1">
            <stop stop-color="#ED3B23" offset="0%"></stop>
            <stop stop-color="#EB6E4B" offset="100%"></stop>
        </linearGradient>
    </defs>
    <g id="src-/-icon" stroke="none" stroke-width="1" fill="none" fill-rule="evenodd">
        <path d="M41.5,25 C42.3284271,25 43,25.6715729 43,26.5 C43,27.2796961 42.4051119,27.9204487 41.64446,27.9931334 L41.5,28 L24.5,28 L24.35554,28.0068666 C23.5948881,28.0795513 23,28.7203039 23,29.5 C23,30.3284271 23.6715729,31 24.5,31 L24.5,31 L26.5,31 C27.3284271,31 28,31.6715729 28,32.5 C28,33.2796961 27.4051119,33.9204487 26.64446,33.9931334 L26.5,34 L26.35554,34.0068666 C25.5948881,34.0795513 25,34.7203039 25,35.5 C25,36.3284271 25.6715729,37 26.5,37 L26.5,37 L35.5,37 C36.3284271,37 37,37.6715729 37,38.5 C37,39.2796961 36.4051119,39.9204487 35.64446,39.9931334 L35.5,40 L8.5,40 C7.67157288,40 7,39.3284271 7,38.5 C7,37.7203039 7.59488808,37.0795513 8.35553999,37.0068666 L8.5,37 L17.5,37 L17.64446,36.9931334 C18.4051119,36.9204487 19,36.2796961 19,35.5 C19,34.6715729 18.3284271,34 17.5,34 L17.5,34 L5.5,34 C4.67157288,34 4,33.3284271 4,32.5 C4,31.7203039 4.59488808,31.0795513 5.35553999,31.0068666 L5.5,31 L5.64446001,30.9931334 C6.40511192,30.9204487 7,30.2796961 7,29.5 C7,28.6715729 6.32842712,28 5.5,28 L5.5,28 L1.5,28 C0.671572875,28 0,27.3284271 0,26.5 C0,25.7203039 0.594888083,25.0795513 1.35553999,25.0068666 L1.5,25 L41.5,25 Z M33.5,31 C34.3284271,31 35,31.6715729 35,32.5 C35,33.2796961 34.4051119,33.9204487 33.64446,33.9931334 L33.5,34 L31.5,34 C30.6715729,34 30,33.3284271 30,32.5 C30,31.7203039 30.5948881,31.0795513 31.35554,31.0068666 L31.5,31 L33.5,31 Z M42.5,31 C43.3284271,31 44,31.6715729 44,32.5 C44,33.2796961 43.4051119,33.9204487 42.64446,33.9931334 L42.5,34 L38.5,34 C37.6715729,34 37,33.3284271 37,32.5 C37,31.7203039 37.5948881,31.0795513 38.35554,31.0068666 L38.5,31 L42.5,31 Z M16.5,28 L12.5,28 L12.35554,28.0068666 C11.5948881,28.0795513 11,28.7203039 11,29.5 C11,30.3284271 11.6715729,31 12.5,31 L12.5,31 L16.5,31 L16.64446,30.9931334 C17.4051119,30.9204487 18,30.2796961 18,29.5 C18,28.6715729 17.3284271,28 16.5,28 L16.5,28 Z M21.2411313,3.0092185 C31.8677147,3.0092185 40.4822626,11.6237664 40.4822626,22.2503498 C40.4822626,23.1851376 40.4156016,24.1043559 40.2867742,25.0035104 L40.2867742,25.0035104 L16.1049173,25.0085572 C15.5160999,24.0727926 15.2941544,22.8721286 15.5012994,21.5 C16.0642994,18.187 18.8142994,15.875 22.3762994,15.875 C24.2512994,15.875 25.9382994,16.75 26.9382994,18.062 L26.9382994,18.062 L30.4392994,15.187 C28.5632994,13.125 25.8762994,12 23.0012994,12 C17.0632994,12 12.0012994,15.937 11.1262994,21.5 C10.9260378,22.773206 10.9680414,23.9612394 11.2230938,25.0363946 L11.217,25.0082185 L2.1963071,25.0092185 C2.0928161,24.2884408 2.02927416,23.5547617 2.00799702,22.810497 L2,22.2503498 C2,11.6237664 10.6145479,3.0092185 21.2411313,3.0092185 Z" id="Oval-2" fill="url(#linearGradient-1)"></path>
    </g>
</svg>